<svg xmlns="http://www.w3.org/2000/svg" xmlns:xlink="http://www.w3.org/1999/xlink" width="200" zoomAndPan="magnify" viewBox="0 0 150 50.999998" height="68" preserveAspectRatio="xMidYMid meet" version="1.0"><defs><g/><clipPath id="cae0bf60b7"><path d="M 0 36.570312 L 19.898438 36.570312 L 19.898438 42.8125 L 0 42.8125 Z M 0 36.570312 " clip-rule="nonzero"/></clipPath></defs><g fill="#000000" fill-opacity="1"><g transform="translate(1.423971, 35.879429)"><g><path d="M 1.890625 0 L 1.890625 -21.78125 L 10.609375 -21.78125 C 13.015625 -21.78125 14.820312 -21.253906 16.03125 -20.203125 C 17.238281 -19.160156 17.84375 -17.828125 17.84375 -16.203125 C 17.84375 -14.921875 17.46875 -13.882812 16.71875 -13.09375 C 15.976562 -12.300781 15.039062 -11.773438 13.90625 -11.515625 L 13.90625 -11.3125 C 14.738281 -11.269531 15.519531 -11.03125 16.25 -10.59375 C 16.976562 -10.164062 17.566406 -9.566406 18.015625 -8.796875 C 18.472656 -8.023438 18.703125 -7.097656 18.703125 -6.015625 C 18.703125 -4.859375 18.414062 -3.828125 17.84375 -2.921875 C 17.269531 -2.015625 16.425781 -1.300781 15.3125 -0.78125 C 14.195312 -0.257812 12.828125 0 11.203125 0 Z M 6.5 -3.765625 L 10.25 -3.765625 C 11.539062 -3.765625 12.476562 -4.007812 13.0625 -4.5 C 13.644531 -5 13.9375 -5.660156 13.9375 -6.484375 C 13.9375 -7.378906 13.613281 -8.113281 12.96875 -8.6875 C 12.332031 -9.257812 11.460938 -9.546875 10.359375 -9.546875 L 6.5 -9.546875 Z M 6.5 -12.671875 L 9.90625 -12.671875 C 10.851562 -12.671875 11.640625 -12.914062 12.265625 -13.40625 C 12.890625 -13.894531 13.203125 -14.570312 13.203125 -15.4375 C 13.203125 -16.21875 12.921875 -16.847656 12.359375 -17.328125 C 11.804688 -17.816406 11.019531 -18.0625 10 -18.0625 L 6.5 -18.0625 Z M 6.5 -12.671875 "/></g></g></g><g fill="#000000" fill-opacity="1"><g transform="translate(21.216125, 35.879429)"><g><path d="M 9.1875 0.3125 C 7.539062 0.3125 6.113281 -0.0351562 4.90625 -0.734375 C 3.707031 -1.441406 2.78125 -2.425781 2.125 -3.6875 C 1.476562 -4.957031 1.15625 -6.429688 1.15625 -8.109375 C 1.15625 -9.796875 1.476562 -11.269531 2.125 -12.53125 C 2.78125 -13.800781 3.707031 -14.785156 4.90625 -15.484375 C 6.113281 -16.191406 7.539062 -16.546875 9.1875 -16.546875 C 10.84375 -16.546875 12.269531 -16.191406 13.46875 -15.484375 C 14.675781 -14.785156 15.601562 -13.800781 16.25 -12.53125 C 16.90625 -11.269531 17.234375 -9.796875 17.234375 -8.109375 C 17.234375 -6.429688 16.90625 -4.957031 16.25 -3.6875 C 15.601562 -2.425781 14.675781 -1.441406 13.46875 -0.734375 C 12.269531 -0.0351562 10.84375 0.3125 9.1875 0.3125 Z M 9.21875 -3.1875 C 10.332031 -3.1875 11.175781 -3.65625 11.75 -4.59375 C 12.332031 -5.53125 12.625 -6.710938 12.625 -8.140625 C 12.625 -9.566406 12.332031 -10.75 11.75 -11.6875 C 11.175781 -12.625 10.332031 -13.09375 9.21875 -13.09375 C 8.070312 -13.09375 7.207031 -12.625 6.625 -11.6875 C 6.039062 -10.75 5.75 -9.566406 5.75 -8.140625 C 5.75 -6.710938 6.039062 -5.53125 6.625 -4.59375 C 7.207031 -3.65625 8.070312 -3.1875 9.21875 -3.1875 Z M 9.21875 -3.1875 "/></g></g></g><g fill="#000000" fill-opacity="1"><g transform="translate(39.593792, 35.879429)"><g><path d="M 9.1875 0.3125 C 7.539062 0.3125 6.113281 -0.0351562 4.90625 -0.734375 C 3.707031 -1.441406 2.78125 -2.425781 2.125 -3.6875 C 1.476562 -4.957031 1.15625 -6.429688 1.15625 -8.109375 C 1.15625 -9.796875 1.476562 -11.269531 2.125 -12.53125 C 2.78125 -13.800781 3.707031 -14.785156 4.90625 -15.484375 C 6.113281 -16.191406 7.539062 -16.546875 9.1875 -16.546875 C 10.84375 -16.546875 12.269531 -16.191406 13.46875 -15.484375 C 14.675781 -14.785156 15.601562 -13.800781 16.25 -12.53125 C 16.90625 -11.269531 17.234375 -9.796875 17.234375 -8.109375 C 17.234375 -6.429688 16.90625 -4.957031 16.25 -3.6875 C 15.601562 -2.425781 14.675781 -1.441406 13.46875 -0.734375 C 12.269531 -0.0351562 10.84375 0.3125 9.1875 0.3125 Z M 9.21875 -3.1875 C 10.332031 -3.1875 11.175781 -3.65625 11.75 -4.59375 C 12.332031 -5.53125 12.625 -6.710938 12.625 -8.140625 C 12.625 -9.566406 12.332031 -10.75 11.75 -11.6875 C 11.175781 -12.625 10.332031 -13.09375 9.21875 -13.09375 C 8.070312 -13.09375 7.207031 -12.625 6.625 -11.6875 C 6.039062 -10.75 5.75 -9.566406 5.75 -8.140625 C 5.75 -6.710938 6.039062 -5.53125 6.625 -4.59375 C 7.207031 -3.65625 8.070312 -3.1875 9.21875 -3.1875 Z M 9.21875 -3.1875 "/></g></g></g><g fill="#000000" fill-opacity="1"><g transform="translate(57.971458, 35.879429)"><g><path d="M 1.8125 0 L 1.8125 -21.78125 L 6.34375 -21.78125 L 6.34375 -10.140625 L 6.578125 -10.140625 L 11.8125 -16.34375 L 17.015625 -16.34375 L 10.953125 -9.265625 L 17.328125 0 L 12.015625 0 L 7.5625 -6.578125 L 6.34375 -5.1875 L 6.34375 0 Z M 1.8125 0 "/></g></g></g><g fill="#000000" fill-opacity="1"><g transform="translate(75.391952, 35.879429)"><g><path d="M 1.890625 0 L 1.890625 -21.78125 L 16.3125 -21.78125 L 16.3125 -17.984375 L 6.5 -17.984375 L 6.5 -12.796875 L 15.359375 -12.796875 L 15.359375 -9 L 6.5 -9 L 6.5 0 Z M 1.890625 0 "/></g></g></g><g fill="#000000" fill-opacity="1"><g transform="translate(92.908168, 35.879429)"><g><path d="M 6.34375 -21.78125 L 6.34375 0 L 1.8125 0 L 1.8125 -21.78125 Z M 6.34375 -21.78125 "/></g></g></g><g fill="#000000" fill-opacity="1"><g transform="translate(101.054748, 35.879429)"><g><path d="M 1.8125 0 L 1.8125 -16.34375 L 6.34375 -16.34375 L 6.34375 0 Z M 4.078125 -18.4375 C 3.410156 -18.4375 2.835938 -18.660156 2.359375 -19.109375 C 1.878906 -19.566406 1.640625 -20.109375 1.640625 -20.734375 C 1.640625 -21.367188 1.878906 -21.910156 2.359375 -22.359375 C 2.835938 -22.804688 3.410156 -23.03125 4.078125 -23.03125 C 4.753906 -23.03125 5.332031 -22.804688 5.8125 -22.359375 C 6.289062 -21.910156 6.53125 -21.367188 6.53125 -20.734375 C 6.53125 -20.109375 6.289062 -19.566406 5.8125 -19.109375 C 5.332031 -18.660156 4.753906 -18.4375 4.078125 -18.4375 Z M 4.078125 -18.4375 "/></g></g></g><g fill="#000000" fill-opacity="1"><g transform="translate(109.201328, 35.879429)"><g><path d="M 5.59375 -16.34375 L 8.59375 -10.625 L 11.671875 -16.34375 L 16.3125 -16.34375 L 11.578125 -8.171875 L 16.4375 0 L 11.8125 0 L 8.59375 -5.640625 L 5.421875 0 L 0.75 0 L 5.59375 -8.171875 L 0.921875 -16.34375 Z M 5.59375 -16.34375 "/></g></g></g><g clip-path="url(#cae0bf60b7)"><path fill="#ff3131" d="M 18.144531 36.738281 C 18.121094 36.6875 18.078125 36.65625 18.023438 36.644531 C 17.96875 36.628906 17.917969 36.636719 17.871094 36.671875 C 16.144531 37.878906 13.238281 38.671875 9.945312 38.671875 C 6.652344 38.671875 3.746094 37.878906 2.019531 36.671875 C 1.972656 36.636719 1.921875 36.628906 1.867188 36.644531 C 1.8125 36.65625 1.773438 36.6875 1.746094 36.738281 L 0.0390625 40.121094 C -0.0117188 40.21875 0.0117188 40.300781 0.105469 40.359375 C 0.519531 40.621094 0.945312 40.851562 1.382812 41.0625 C 3.742188 42.1875 6.78125 42.804688 9.945312 42.804688 C 13.109375 42.804688 16.152344 42.1875 18.507812 41.0625 C 18.945312 40.851562 19.371094 40.621094 19.785156 40.359375 C 19.878906 40.300781 19.902344 40.21875 19.851562 40.121094 Z M 18.144531 36.738281 " fill-opacity="1" fill-rule="nonzero"/></g></svg>